<svg xmlns="http://www.w3.org/2000/svg" viewBox="0 0 960 620"><defs><filter id="s"><feDropShadow dx="0" dy="18" stdDeviation="16" flood-opacity=".16"/></filter></defs><rect width="960" height="620" rx="42" fill="#f4ead9"/><circle cx="760" cy="125" r="78" fill="#f4d27f" opacity=".72"/><path d="M0 460C190 405 325 480 480 430C630 384 775 415 960 350v270H0z" fill="#b98958" opacity=".38"/><path d="M145 450C255 370 370 390 480 315C605 230 710 235 840 165" fill="none" stroke="#6a4a31" stroke-width="14" stroke-linecap="round" stroke-dasharray="2 34"/><g filter="url(#s)"><rect x="250" y="280" width="460" height="170" rx="26" fill="#d2a66b"/><path d="M300 280c50-70 120-110 180-110s130 40 180 110" fill="#735038"/><rect x="418" y="350" width="124" height="100" rx="62" fill="#5a3b28"/></g><g fill="#fff2cf" opacity=".82"><circle cx="160" cy="130" r="6"/><circle cx="220" cy="190" r="4"/><circle cx="650" cy="105" r="5"/><circle cx="850" cy="240" r="4"/></g></svg>
