<svg xmlns="http://www.w3.org/2000/svg" viewBox="0 0 960 620"><defs><filter id="s"><feDropShadow dx="0" dy="18" stdDeviation="16" flood-opacity=".18"/></filter></defs><rect width="960" height="620" rx="42" fill="#dfe8c8"/><path d="M0 440C170 390 310 455 470 410C650 360 770 405 960 330v290H0z" fill="#9b7447" opacity=".48"/><g stroke="#5b3d27" stroke-width="18" stroke-linecap="round"><path d="M220 520C230 410 220 310 250 200"/><path d="M480 530C490 410 480 310 515 180"/><path d="M720 520C730 415 725 320 755 215"/></g><g fill="#2f684e"><path d="M250 205C145 170 135 125 235 150C190 95 230 60 270 145C305 62 355 90 310 155C412 125 395 185 292 207z"/><path d="M515 185C405 145 405 95 500 128C455 70 505 45 540 130C585 50 640 80 585 145C695 125 675 190 555 190z"/><path d="M755 220C660 185 660 140 745 165C705 105 760 80 785 168C835 100 885 135 835 195C925 175 910 235 795 225z"/></g><g filter="url(#s)"><rect x="365" y="425" width="230" height="58" rx="18" fill="#d8b06e"/><path d="M395 425v-70M565 425v-70" stroke="#6b4429" stroke-width="16" stroke-linecap="round"/></g></svg>
