<svg xmlns="http://www.w3.org/2000/svg" viewBox="0 0 960 620" role="img" aria-label="Journey map"><defs><filter id="s"><feDropShadow dx="0" dy="18" stdDeviation="16" flood-opacity=".18"/></filter></defs><rect width="960" height="620" rx="42" fill="#f5e5c8"/><circle cx="130" cy="110" r="56" fill="#fff4c9"/><path d="M0 500C170 430 285 515 440 455C625 385 735 430 960 340v280H0z" fill="#c78e52" opacity=".38"/><path d="M115 425C250 310 330 355 430 245C545 120 650 215 745 145C820 90 875 120 915 80" fill="none" stroke="#704728" stroke-width="17" stroke-linecap="round" stroke-dasharray="1 35"/><g filter="url(#s)"><rect x="105" y="355" width="112" height="88" rx="14" fill="#8b5b35"/><path d="M92 360l70-62 70 62z" fill="#5c3824"/><rect x="780" y="100" width="92" height="124" rx="14" fill="#2f5d4b"/><circle cx="826" cy="82" r="44" fill="#7c9e62"/></g><text x="480" y="550" text-anchor="middle" font-family="Arial" font-size="32" fill="#3b2a20">رحلة الباحث عن الحقيقة</text></svg>
