<svg xmlns="http://www.w3.org/2000/svg" viewBox="0 0 960 620"><defs><filter id="s"><feDropShadow dx="0" dy="18" stdDeviation="16" flood-opacity=".16"/></filter></defs><rect width="960" height="620" rx="42" fill="#eee0ca"/><g opacity=".42" fill="#7b5639"><rect x="85" y="220" width="135" height="190" rx="12"/><rect x="255" y="170" width="120" height="240" rx="12"/><rect x="735" y="200" width="130" height="210" rx="12"/><path d="M70 220l82-70 83 70zM245 170l70-65 73 65zM725 200l75-70 78 70z"/></g><path d="M0 480C175 430 310 495 480 455C650 415 760 450 960 390v230H0z" fill="#b58a55" opacity=".35"/><g filter="url(#s)"><circle cx="385" cy="282" r="45" fill="#2f465f"/><path d="M385 330v130M330 385h110M385 460l-55 70M385 460l55 70" stroke="#2f465f" stroke-width="26" stroke-linecap="round"/><rect x="472" y="320" width="120" height="88" rx="16" fill="#9a6d43"/><path d="M485 318c20-38 76-38 96 0" fill="none" stroke="#6a472d" stroke-width="12"/><circle cx="620" cy="300" r="42" fill="#8b5f3a"/><path d="M620 342v105M580 395h82M620 445l-45 65M620 445l45 65" stroke="#8b5f3a" stroke-width="23" stroke-linecap="round"/></g></svg>
