<svg xmlns="http://www.w3.org/2000/svg" viewBox="0 0 960 620"><defs><filter id="s"><feDropShadow dx="0" dy="18" stdDeviation="16" flood-opacity=".18"/></filter></defs><rect width="960" height="620" rx="42" fill="#f3dfbd"/><path d="M0 455C190 405 295 475 470 430C650 385 770 420 960 350v270H0z" fill="#b9824a" opacity=".35"/><g filter="url(#s)"><rect x="138" y="318" width="230" height="142" rx="18" fill="#c28c52"/><path d="M112 325l141-115 141 115z" fill="#6d4026"/><rect x="213" y="365" width="76" height="95" rx="10" fill="#4f3021"/></g><g transform="translate(575 150)" filter="url(#s)"><path d="M90 270c-70-58-15-125 17-165c2 45 54 66 34 121c45-30 68-75 64-126c70 84 88 173 6 237c-44 35-88 31-121-67z" fill="#d95535"/><path d="M104 282c-30-54 13-83 33-121c10 42 50 50 35 103c24-12 43-34 49-70c34 76 8 129-46 143c-31 8-53-4-71-55z" fill="#f2b84b"/><rect x="60" y="332" width="190" height="34" rx="17" fill="#57402d"/></g></svg>
