<svg xmlns="http://www.w3.org/2000/svg" viewBox="0 0 960 620"><defs><filter id="s"><feDropShadow dx="0" dy="18" stdDeviation="16" flood-opacity=".16"/></filter></defs><rect width="960" height="620" rx="42" fill="#f3eadb"/><path d="M120 460C260 285 360 360 480 230C600 100 715 200 840 115" fill="none" stroke="#795034" stroke-width="12" stroke-dasharray="18 24" stroke-linecap="round"/><g filter="url(#s)"><circle cx="150" cy="442" r="58" fill="#ad7445"/><rect x="110" y="500" width="80" height="35" rx="14" fill="#ad7445"/><circle cx="355" cy="330" r="58" fill="#5e7652"/><rect x="315" y="388" width="80" height="35" rx="14" fill="#5e7652"/><circle cx="570" cy="210" r="58" fill="#8d5c43"/><rect x="530" y="268" width="80" height="35" rx="14" fill="#8d5c43"/><circle cx="805" cy="130" r="58" fill="#314c67"/><rect x="765" y="188" width="80" height="35" rx="14" fill="#314c67"/></g><g fill="#f8ead1"><circle cx="150" cy="425" r="12"/><circle cx="355" cy="313" r="12"/><circle cx="570" cy="193" r="12"/><circle cx="805" cy="113" r="12"/></g><text x="480" y="555" text-anchor="middle" font-family="Arial" font-size="30" fill="#3b2a20">شيخ يدل على شيخ</text></svg>
