<svg xmlns="http://www.w3.org/2000/svg" viewBox="0 0 960 620"><defs><filter id="s"><feDropShadow dx="0" dy="18" stdDeviation="16" flood-opacity=".22"/></filter></defs><rect width="960" height="620" rx="42" fill="#102039"/><g opacity=".8" fill="#fff7d3"><circle cx="120" cy="95" r="5"/><circle cx="235" cy="185" r="4"/><circle cx="410" cy="90" r="6"/><circle cx="700" cy="155" r="4"/><circle cx="830" cy="80" r="7"/></g><g filter="url(#s)"><rect x="120" y="240" width="190" height="190" rx="34" fill="#f4d89b"/><rect x="385" y="240" width="190" height="190" rx="34" fill="#f4d89b"/><rect x="650" y="240" width="190" height="190" rx="34" fill="#f4d89b"/></g><path d="M175 335h80M215 295v80" stroke="#7a4d2e" stroke-width="18" stroke-linecap="round"/><path d="M435 345c40-60 70-60 110 0c-40 45-70 45-110 0z" fill="#7a4d2e"/><circle cx="745" cy="335" r="48" fill="none" stroke="#7a4d2e" stroke-width="16"/><circle cx="745" cy="335" r="14" fill="#7a4d2e"/><text x="215" y="470" text-anchor="middle" font-family="Arial" font-size="24" fill="#f8e8bd">صدقة</text><text x="480" y="470" text-anchor="middle" font-family="Arial" font-size="24" fill="#f8e8bd">هدية</text><text x="745" y="470" text-anchor="middle" font-family="Arial" font-size="24" fill="#f8e8bd">خاتم</text></svg>
