<svg xmlns="http://www.w3.org/2000/svg" viewBox="0 0 960 620"><defs><filter id="s"><feDropShadow dx="0" dy="18" stdDeviation="16" flood-opacity=".18"/></filter></defs><rect width="960" height="620" rx="42" fill="#f0dfc4"/><path d="M0 450C170 405 290 480 455 430C630 375 750 415 960 340v280H0z" fill="#bd8753"/><path d="M0 490C185 435 300 530 465 468C630 410 760 450 960 380" fill="none" stroke="#523420" stroke-width="68" stroke-linecap="round"/><path d="M0 466C185 415 300 505 465 445C630 388 760 428 960 356" fill="none" stroke="#e6d3b5" stroke-width="21" stroke-linecap="round" opacity=".8"/><g filter="url(#s)" fill="#36506a"><rect x="210" y="260" width="80" height="80" rx="8"/><rect x="330" y="225" width="90" height="115" rx="8"/><rect x="465" y="280" width="75" height="60" rx="8"/><rect x="590" y="240" width="110" height="100" rx="8"/></g><path d="M185 260h540" stroke="#36506a" stroke-width="16" stroke-linecap="round" opacity=".55"/></svg>
