<svg xmlns="http://www.w3.org/2000/svg" viewBox="0 0 512 512">
  <defs>
    <linearGradient id="g" x1="0" x2="1" y1="0" y2="1">
      <stop offset="0" stop-color="#25364f"/>
      <stop offset="0.55" stop-color="#9a642f"/>
      <stop offset="1" stop-color="#d6a65a"/>
    </linearGradient>
  </defs>
  <rect width="512" height="512" rx="112" fill="#fbf5ea"/>
  <circle cx="256" cy="256" r="178" fill="url(#g)"/>
  <path d="M128 303c66-25 111-63 135-116 10 42 47 77 112 104-67 20-111 58-133 116-14-44-51-79-114-104Z" fill="#fffaf1" opacity="0.96"/>
  <path d="M247 110c8 39 35 67 81 84-46 14-75 41-88 83-10-38-38-66-83-82 47-17 77-45 90-85Z" fill="#f2c879" opacity="0.9"/>
  <path d="M356 319c5 24 22 42 51 53-29 9-47 26-55 52-6-24-24-41-52-52 30-10 48-28 56-53Z" fill="#f2c879" opacity="0.92"/>
  <path d="M171 356h170" stroke="#fffaf1" stroke-width="18" stroke-linecap="round" opacity="0.9"/>
  <path d="M149 392h214" stroke="#fffaf1" stroke-width="12" stroke-linecap="round" opacity="0.72"/>
</svg>
